<?xml version="1.0" encoding="utf-8"?>
<!-- Generator: Adobe Illustrator 16.0.0, SVG Export Plug-In . SVG Version: 6.00 Build 0)  -->
<!DOCTYPE svg PUBLIC "-//W3C//DTD SVG 1.1//EN" "http://www.w3.org/Graphics/SVG/1.1/DTD/svg11.dtd">
<svg version="1.1" id="Layer_1" xmlns="http://www.w3.org/2000/svg" xmlns:xlink="http://www.w3.org/1999/xlink" x="0px" y="0px"
	 width="2267.72px" height="2267.72px" viewBox="0 0 2267.72 2267.72" enable-background="new 0 0 2267.72 2267.72"
	 xml:space="preserve">
<g id="XMLID_1_">
	<g>
		<path d="M1894.19,1080.96c-373.74,79.3-380.94,130.45-39.07,300.24c-374.23-75.4-399.4-32.16-146.101,253.16
			c-317.789-211.13-357.109-180.19-230.359,179.909c-215.72-314.909-265.37-300.659-291.88,80.471
			c-79.29-373.73-130.44-380.931-300.24-39.061c75.41-374.239,32.16-399.41-253.16-146.1c211.13-317.8,180.19-357.12-179.91-230.37
			c314.91-215.71,300.67-265.36-80.47-291.87c373.74-79.3,380.94-130.45,39.07-300.24c374.23,75.4,399.4,32.16,146.1-253.16
			c317.79,211.13,357.11,180.19,230.36-179.91c215.72,314.91,265.37,300.66,291.88-80.47c79.3,373.73,130.439,380.93,300.24,39.06
			c-75.4,374.24-32.16,399.41,253.159,146.1c-211.14,317.8-180.189,357.12,179.91,230.37
			C1498.81,1004.81,1513.05,1054.45,1894.19,1080.96z"/>
	</g>
	<g>
		<path fill="none" stroke="#2E3192" stroke-width="0.5" stroke-miterlimit="10" d="M1186.78,1894.74
			c-79.29-373.73-130.44-380.931-300.24-39.061c75.41-374.239,32.16-399.41-253.16-146.1c211.13-317.8,180.19-357.12-179.91-230.37
			c314.91-215.71,300.67-265.36-80.47-291.87c373.74-79.3,380.94-130.45,39.07-300.24c374.23,75.4,399.4,32.16,146.1-253.16
			c317.79,211.13,357.11,180.19,230.36-179.91c215.72,314.91,265.37,300.66,291.88-80.47c79.3,373.73,130.439,380.93,300.24,39.06
			c-75.4,374.24-32.16,399.41,253.159,146.1c-211.14,317.8-180.189,357.12,179.91,230.37
			c-314.91,215.72-300.67,265.36,80.471,291.87c-373.74,79.3-380.94,130.45-39.07,300.24c-374.23-75.4-399.4-32.16-146.101,253.16
			c-317.789-211.13-357.109-180.19-230.359,179.909C1262.94,1499.36,1213.29,1513.61,1186.78,1894.74z"/>
	</g>
</g>
<g id="XMLID_8_">
	<g>
		<path fill="#FFFFFF" d="M1249.25,987.13c0.05,1.87-1.36,3.45-1.17,5.34c0.2,1.9-1.29,3.27-2.4,4.6c0.12,1.21,0.32,2.43,0.261,3.66
			c-0.96,2.71-2.641,5.13-3.29,7.95c-0.591,2.64-1.29,5.25-1.83,7.9c-0.36,1.81,0.75,3.33,1.51,4.87c0.58,1.58-0.18,3.2-0.62,4.72
			c-0.92,2.81-3.03,5-4.22,7.67c-0.78,1.69-0.41,3.54-0.37,5.32c-0.46,2-1.51,3.78-2.47,5.57c-1.33,2.61-1.42,5.6-1.33,8.46
			c-0.96,4.32-2.051,8.63-3.601,12.77c-0.35,2.59,0.641,5.18,0.601,7.78c-0.301,1.32-0.86,2.56-1.181,3.88
			c-0.02,1.69,0.03,3.4-0.29,5.08c-0.54,1.48-1.359,2.84-1.93,4.3c-0.74,1.71-1.03,3.71-2.51,4.99c-1.43,1.66-3.9,1.9-5.19,3.69
			c-1.1,1.42-2.5,2.7-3.04,4.46c-0.71,2.12-2.399,3.7-3.43,5.65c-0.37,2.88,1.37,5.39,1.42,8.22c0.63,6.18,1.28,12.36,1.93,18.54
			c0.15,2.05,2.591,2.59,4.021,3.601c-0.19,1.699-0.69,3.43-2.03,4.59c-2.39,2.06-4.72,4.29-7.6,5.66
			c0.189,1.84,0.34,3.699,1.069,5.43c0.66,1.67-0.449,3.38-1.29,4.78c-2.779,2.319-5.92,4.17-9.09,5.89
			c-2.29,2.17-4.41,4.52-6.42,6.96c-1.689,1.81-3.83,3.17-5.22,5.28c-2.58,2.42-6.07,3.83-9.61,3.91
			c-0.43,1.319-1.189,2.569-1.26,3.97c1.061,4.38,4.44,7.64,6.4,11.6c0.52,3.84,0.89,7.71,1.229,11.57
			c-0.27,2.57-1.189,5.02-2.14,7.41c-0.55,1.12-0.36,2.439,0,3.6c1.25,2.79,0.96,5.94,1.45,8.9c0.68,4.069,0.069,8.17,0.12,12.27
			c0.72,4.681-2.021,9.021-2.091,13.66c0.38,3.46,0.58,6.95,1.2,10.39c0.93,2.631,1.15,5.53,0.45,8.25
			c-0.68,1.631-1.92,2.94-2.69,4.521c-0.239,2.05-0.439,4.14-1.439,5.99c1.14,0.189,2.28,0.34,3.45,0.38
			c-0.101,0.75,0.06,1.66-0.65,2.17c-1.38,1.36-2.68,2.8-3.63,4.5c-3.54,0.439-7.1,0.76-10.65,1.14
			c-2.02,0.04-3.39,2.07-5.489,1.811c-2.78-0.62-5.511-2.24-8.45-1.511c-2.021,0.131-3.17,2.11-4.92,2.891
			c-1.351-0.29-3.12-0.69-3.49-2.25c0.52-2.03,2.49-3.12,3.86-4.53c2.079-2.14,5.14-2.66,7.819-3.67c1.73-0.77,3.66-0.69,5.48-1.03
			c1.33-0.899,1.46-2.64,1.91-4.05c1.04-2.979-0.181-6.1-1.131-8.93c-1.31-3.79-1.43-7.931-3.359-11.49
			c-0.55-2.54-0.311-5.229-1.24-7.68c-1.11-4.46-0.85-9.08-0.88-13.61c0.71-1.479,1.86-2.85,1.85-4.58
			c-1.149-0.85-2.39-1.62-3.38-2.649c-0.34-1.45-0.1-2.94,0.04-4.391c0-1.729-0.43-3.43-0.38-5.16c0.3-1.33,0.8-2.59,1-3.92
			c-0.12-3.1-2.26-5.56-3.74-8.14c-1.979-1.311-4.56-1.59-6.21-3.41c-1.38-1.18-0.91-3.15-1.56-4.66
			c-1.54-1.96-3.68-3.26-5.58-4.819c-1.14-1.131-2.98-2.75-1.73-4.45c1.15-1.54,0.971-3.431,0.65-5.221
			c2.13-1.939,2.55-5.399,0.68-7.67c-0.37-1.569-2.04-0.97-3.21-1.02c0.21,3.04,0.681,6.05,0.82,9.09
			c-0.25,2.12-2.35,3.19-3.73,4.57c-1.169,1.21-3.04,1.1-4.589,1.04c-2.76-1.23-5.06-3.19-7.56-4.84
			c-3.79-0.301-6.88,2.27-10.09,3.88c-3.38,2.189-7.52,1.77-11.3,2.479c-1.41,1.09-3.04,1.92-4.89,1.57
			c-1.89-0.59-3.9-1.15-5.33-2.58c-2.24-2.26-4.32-4.69-6.33-7.14c-2.96-4.24-2.71-9.591-3.22-14.521
			c0.57-3.03,1.29-6.31,3.48-8.649c1.21-1.49,2.35-3.051,3.9-4.211c1.86-1.46,3.54-3.35,5.85-4.069c3.37-0.46,6.77-0.72,10.15-1.08
			c0.06-1.8-1.13-3.021-2.2-4.28c-0.44-1.34-0.33-2.8-0.79-4.13c-1.42-1.72-3.32-2.96-5.41-3.72c-1.04-2.8-1.1-7.09-4.7-7.84
			c-1.96-0.28-2.74-2.3-4.1-3.47c-3.1-2.95-6.08-6.01-9.09-9.06c-1.58-1.56-2.59-3.66-4.41-4.96c-2.12-0.79-4.49-0.67-6.54-1.67
			c-5.25-2.51-9.45-6.64-14.01-10.18c-4.71-4.41-11.1-6.23-16.47-9.63c-2.13-1.74-4.25-3.48-6.4-5.19
			c-1.42-1.05-1.99-2.78-3.02-4.14c-1.04-1.06-2.59-1.22-3.93-1.66c-0.36-0.85-0.73-1.68-1.07-2.53c-3.74-1.69-7.86-2.25-11.61-3.95
			c-1.31-0.68-3.02-0.7-4.08-1.76c-0.33-2.38-0.46-4.77-0.84-7.12c-0.76-0.81-1.98-1.44-1.95-2.69c-0.24-2.83-0.63-5.64-0.84-8.47
			c0.35-1.53,1.5-2.77,1.89-4.3c0.08-1.11-0.47-2.11-0.82-3.12c-0.4-1.66-0.34-3.4-0.82-5.05c-0.97-3.08-0.81-6.38-1.39-9.54
			c-0.49-1.46-1.99-2.46-2.07-4.07c-0.51-4.96-1.1-9.92-1.53-14.89c2.18-1.43,3.59-4.01,6.31-4.56c3.22-0.51,6.6-1.25,9.82-0.36
			c1.98,0.48,4.05,0.52,5.99,1.17c2.37,0.71,3.09,3.73,5.59,4.23c1.98,0.98,4.15,0.15,6.23,0.18c3.41,0.39,6.11,2.86,9.42,3.57
			c4.26,0.83,7.76,3.62,11.88,4.81c1.59,0.43,3.06,1.19,4.52,1.93c4.71,2.34,10.1,2.85,14.79,5.24c3.46,1.69,7.38,2.06,10.94,3.52
			c3.96,1.8,8.16,3.18,11.73,5.75c3.09,1.53,6.65,1.95,9.67,3.73c3.47,2.06,7.51,2.76,11.15,4.44c2.94,0.15,6,0.52,8.87-0.43
			c1.29-0.43,2.66-0.6,4.02-0.61c1.42,0.3,2.68,1.36,4.18,1.16c9.26-1.01,18.54-1.79,27.8-2.77c2.72,0.35,5.44-0.33,8.16,0.01
			c3.06-0.03,6.07,0.47,9.12,0.52c1.979,0.76,3.899,1.65,5.88,2.41c2.12-1.38,3.04-3.79,4.44-5.78c1.529-2.33,2.51-4.98,4.1-7.28
			c1.76-2.42,2.35-5.43,3.76-8.03c4.4-7.84,7.561-16.3,11.771-24.24c1.229-3.05,0.699-6.44,1.29-9.6c1.09-3.45,1.26-7.08,1.989-10.6
			c0.44-2.45,2.631-3.88,4.4-5.35c1.56-1.24,2.79-2.97,4.7-3.69c1.229-0.33,2.569-0.29,3.72-0.9c2.85-1.36,5.85-2.39,8.811-3.48
			c3.63-0.64,7.119,1.51,9.939,3.59c1.7,1.82,4.26,3.5,4.19,6.26C1248.6,980.91,1249.11,984,1249.25,987.13z"/>
	</g>
	<g>
		<path fill="none" stroke="#2E3192" stroke-width="0.5" stroke-miterlimit="10" d="M1162.09,1043.95c2.72,0.35,5.44-0.33,8.16,0.01
			c3.06-0.03,6.07,0.47,9.12,0.52c1.979,0.76,3.899,1.65,5.88,2.41c2.12-1.38,3.04-3.79,4.44-5.78c1.529-2.33,2.51-4.98,4.1-7.28
			c1.76-2.42,2.35-5.43,3.76-8.03c4.4-7.84,7.561-16.3,11.771-24.24c1.229-3.05,0.699-6.44,1.29-9.6c1.09-3.45,1.26-7.08,1.989-10.6
			c0.44-2.45,2.631-3.88,4.4-5.35c1.56-1.24,2.79-2.97,4.7-3.69c1.229-0.33,2.569-0.29,3.72-0.9c2.85-1.36,5.85-2.39,8.811-3.48
			c3.63-0.64,7.119,1.51,9.939,3.59c1.7,1.82,4.26,3.5,4.19,6.26c0.239,3.12,0.75,6.21,0.89,9.34c0.05,1.87-1.36,3.45-1.17,5.34
			c0.2,1.9-1.29,3.27-2.4,4.6c0.12,1.21,0.32,2.43,0.261,3.66c-0.96,2.71-2.641,5.13-3.29,7.95c-0.591,2.64-1.29,5.25-1.83,7.9
			c-0.36,1.81,0.75,3.33,1.51,4.87c0.58,1.58-0.18,3.2-0.62,4.72c-0.92,2.81-3.03,5-4.22,7.67c-0.78,1.69-0.41,3.54-0.37,5.32
			c-0.46,2-1.51,3.78-2.47,5.57c-1.33,2.61-1.42,5.6-1.33,8.46c-0.96,4.32-2.051,8.63-3.601,12.77c-0.35,2.59,0.641,5.18,0.601,7.78
			c-0.301,1.32-0.86,2.56-1.181,3.88c-0.02,1.69,0.03,3.4-0.29,5.08c-0.54,1.48-1.359,2.84-1.93,4.3c-0.74,1.71-1.03,3.71-2.51,4.99
			c-1.43,1.66-3.9,1.9-5.19,3.69c-1.1,1.42-2.5,2.7-3.04,4.46c-0.71,2.12-2.399,3.7-3.43,5.65c-0.37,2.88,1.37,5.39,1.42,8.22
			c0.63,6.18,1.28,12.36,1.93,18.54c0.15,2.05,2.591,2.59,4.021,3.601c-0.19,1.699-0.69,3.43-2.03,4.59
			c-2.39,2.06-4.72,4.29-7.6,5.66c0.189,1.84,0.34,3.699,1.069,5.43c0.66,1.67-0.449,3.38-1.29,4.78
			c-2.779,2.319-5.92,4.17-9.09,5.89c-2.29,2.17-4.41,4.52-6.42,6.96c-1.689,1.81-3.83,3.17-5.22,5.28
			c-2.58,2.42-6.07,3.83-9.61,3.91c-0.43,1.319-1.189,2.569-1.26,3.97c1.061,4.38,4.44,7.64,6.4,11.6
			c0.52,3.84,0.89,7.71,1.229,11.57c-0.27,2.57-1.189,5.02-2.14,7.41c-0.55,1.12-0.36,2.439,0,3.6c1.25,2.79,0.96,5.94,1.45,8.9
			c0.68,4.069,0.069,8.17,0.12,12.27c0.72,4.681-2.021,9.021-2.091,13.66c0.38,3.46,0.58,6.95,1.2,10.39
			c0.93,2.631,1.15,5.53,0.45,8.25c-0.68,1.631-1.92,2.94-2.69,4.521c-0.239,2.05-0.439,4.14-1.439,5.99
			c1.14,0.189,2.28,0.34,3.45,0.38c-0.101,0.75,0.06,1.66-0.65,2.17c-1.38,1.36-2.68,2.8-3.63,4.5c-3.54,0.439-7.1,0.76-10.65,1.14
			c-2.02,0.04-3.39,2.07-5.489,1.811c-2.78-0.62-5.511-2.24-8.45-1.511c-2.021,0.131-3.17,2.11-4.92,2.891
			c-1.351-0.29-3.12-0.69-3.49-2.25c0.52-2.03,2.49-3.12,3.86-4.53c2.079-2.14,5.14-2.66,7.819-3.67c1.73-0.77,3.66-0.69,5.48-1.03
			c1.33-0.899,1.46-2.64,1.91-4.05c1.04-2.979-0.181-6.1-1.131-8.93c-1.31-3.79-1.43-7.931-3.359-11.49
			c-0.55-2.54-0.311-5.229-1.24-7.68c-1.11-4.46-0.85-9.08-0.88-13.61c0.71-1.479,1.86-2.85,1.85-4.58
			c-1.149-0.85-2.39-1.62-3.38-2.649c-0.34-1.45-0.1-2.94,0.04-4.391c0-1.729-0.43-3.43-0.38-5.16c0.3-1.33,0.8-2.59,1-3.92
			c-0.12-3.1-2.26-5.56-3.74-8.14c-1.979-1.311-4.56-1.59-6.21-3.41c-1.38-1.18-0.91-3.15-1.56-4.66
			c-1.54-1.96-3.68-3.26-5.58-4.819c-1.14-1.131-2.98-2.75-1.73-4.45c1.15-1.54,0.971-3.431,0.65-5.221
			c2.13-1.939,2.55-5.399,0.68-7.67c-0.37-1.569-2.04-0.97-3.21-1.02c0.21,3.04,0.681,6.05,0.82,9.09
			c-0.25,2.12-2.35,3.19-3.73,4.57c-1.169,1.21-3.04,1.1-4.589,1.04c-2.76-1.23-5.06-3.19-7.56-4.84
			c-3.79-0.301-6.88,2.27-10.09,3.88c-3.38,2.189-7.52,1.77-11.3,2.479c-1.41,1.09-3.04,1.92-4.89,1.57
			c-1.89-0.59-3.9-1.15-5.33-2.58c-2.24-2.26-4.32-4.69-6.33-7.14c-2.96-4.24-2.71-9.591-3.22-14.521
			c0.57-3.03,1.29-6.31,3.48-8.649c1.21-1.49,2.35-3.051,3.9-4.211c1.86-1.46,3.54-3.35,5.85-4.069c3.37-0.46,6.77-0.72,10.15-1.08
			c0.06-1.8-1.13-3.021-2.2-4.28c-0.44-1.34-0.33-2.8-0.79-4.13c-1.42-1.72-3.32-2.96-5.41-3.72c-1.04-2.8-1.1-7.09-4.7-7.84
			c-1.96-0.28-2.74-2.3-4.1-3.47c-3.1-2.95-6.08-6.01-9.09-9.06c-1.58-1.56-2.59-3.66-4.41-4.96c-2.12-0.79-4.49-0.67-6.54-1.67
			c-5.25-2.51-9.45-6.64-14.01-10.18c-4.71-4.41-11.1-6.23-16.47-9.63c-2.13-1.74-4.25-3.48-6.4-5.19
			c-1.42-1.05-1.99-2.78-3.02-4.14c-1.04-1.06-2.59-1.22-3.93-1.66c-0.36-0.85-0.73-1.68-1.07-2.53c-3.74-1.69-7.86-2.25-11.61-3.95
			c-1.31-0.68-3.02-0.7-4.08-1.76c-0.33-2.38-0.46-4.77-0.84-7.12c-0.76-0.81-1.98-1.44-1.95-2.69c-0.24-2.83-0.63-5.64-0.84-8.47
			c0.35-1.53,1.5-2.77,1.89-4.3c0.08-1.11-0.47-2.11-0.82-3.12c-0.4-1.66-0.34-3.4-0.82-5.05c-0.97-3.08-0.81-6.38-1.39-9.54
			c-0.49-1.46-1.99-2.46-2.07-4.07c-0.51-4.96-1.1-9.92-1.53-14.89c2.18-1.43,3.59-4.01,6.31-4.56c3.22-0.51,6.6-1.25,9.82-0.36
			c1.98,0.48,4.05,0.52,5.99,1.17c2.37,0.71,3.09,3.73,5.59,4.23c1.98,0.98,4.15,0.15,6.23,0.18c3.41,0.39,6.11,2.86,9.42,3.57
			c4.26,0.83,7.76,3.62,11.88,4.81c1.59,0.43,3.06,1.19,4.52,1.93c4.71,2.34,10.1,2.85,14.79,5.24c3.46,1.69,7.38,2.06,10.94,3.52
			c3.96,1.8,8.16,3.18,11.73,5.75c3.09,1.53,6.65,1.95,9.67,3.73c3.47,2.06,7.51,2.76,11.15,4.44c2.94,0.15,6,0.52,8.87-0.43
			c1.29-0.43,2.66-0.6,4.02-0.61c1.42,0.3,2.68,1.36,4.18,1.16C1143.55,1045.71,1152.83,1044.93,1162.09,1043.95z"/>
	</g>
</g>
<g id="XMLID_9_">
	<g>
		<path d="M1153.5,1085.92c1.1,4.54-3.54,7.14-4.96,10.96c1.24,0.9,1.729,2.26,1.79,3.75c-1.14,1.39-2.21,2.89-3.73,3.91
			c-3.34,2.22-7.27,3.37-10.5,5.76c-2.26,1.65-4.729,3.01-7.28,4.17c-1.16,0.29-2.47,0.62-3.57-0.01c-2.6-1-4.7-2.9-6.94-4.5
			c-1.93-1.37-2.99-3.64-4.97-4.95c-4.6-3.24-10.02-4.99-14.9-7.73c-2.03-1.18-3.63-2.91-5.42-4.39c-2.02-1.71-4.53-2.66-6.72-4.1
			c-4.04-2.78-8.67-4.5-12.89-6.97c-2.08-0.87-4.1-1.87-6.05-3c-3.7-1.06-7.58-1.65-11.13-3.21c-3.43-1.84-7.43-1.97-11.04-3.33
			c-4.11-1.52-8.42-2.3-12.61-3.53c-1.77-0.29-3.54,0.49-5.32,0.31c-1.5-1.68-1.94-3.98-3.24-5.78c-1.02-1.93-2.81-3.2-4.5-4.48
			c-0.49-1.86,0.54-3.42,1.23-5.05c0.06-2.61-0.79-5.15-0.65-7.75c0.51-1.16,1.2-2.22,1.84-3.3c0.81-0.03,1.62-0.09,2.42-0.04
			c0.29,3.26,0.48,6.57,1.74,9.64c1.09,1.39,2.66,2.41,4.4,2.74c3.25,0.73,6.53,1.38,9.78,2.11c4.01-0.48,8.3-0.19,11.94-2.24
			c3.53-0.18,6.8-1.68,10.34-1.73c1.76,0.07,2.74,1.72,3.72,2.96c2.3,0.27,4.62,0.45,6.92,0.74c2.6,0.26,4.13,2.72,6.54,3.49
			c2.54,0.89,4.66,2.71,7.29,3.39c4.55,1.84,7.74,5.88,12.26,7.8c3.47,2.41,7.28,5.28,11.76,4.71c3.06,1.28,6.19,2.38,9.37,3.31
			c2.95,0.89,5.64,2.45,8.57,3.36c3.82,0.56,7.529,1.73,11.359,2.24c1.86-0.12,3.71,0.09,5.49,0.65
			C1148.32,1086.79,1150.94,1085.58,1153.5,1085.92z"/>
	</g>
	<g>
		<path fill="none" stroke="#2E3192" stroke-width="0.5" stroke-miterlimit="10" d="M1153.5,1085.92c-2.56-0.34-5.18,0.87-7.66-0.09
			c-1.78-0.56-3.63-0.77-5.49-0.65c-3.83-0.51-7.54-1.68-11.359-2.24c-2.93-0.91-5.62-2.47-8.57-3.36
			c-3.18-0.93-6.31-2.03-9.37-3.31c-4.48,0.57-8.29-2.3-11.76-4.71c-4.52-1.92-7.71-5.96-12.26-7.8c-2.63-0.68-4.75-2.5-7.29-3.39
			c-2.41-0.77-3.94-3.23-6.54-3.49c-2.3-0.29-4.62-0.47-6.92-0.74c-0.98-1.24-1.96-2.89-3.72-2.96c-3.54,0.05-6.81,1.55-10.34,1.73
			c-3.64,2.05-7.93,1.76-11.94,2.24c-3.25-0.73-6.53-1.38-9.78-2.11c-1.74-0.33-3.31-1.35-4.4-2.74c-1.26-3.07-1.45-6.38-1.74-9.64
			c-0.8-0.05-1.61,0.01-2.42,0.04c-0.64,1.08-1.33,2.14-1.84,3.3c-0.14,2.6,0.71,5.14,0.65,7.75c-0.69,1.63-1.72,3.19-1.23,5.05
			c1.69,1.28,3.48,2.55,4.5,4.48c1.3,1.8,1.74,4.1,3.24,5.78c1.78,0.18,3.55-0.6,5.32-0.31c4.19,1.23,8.5,2.01,12.61,3.53
			c3.61,1.36,7.61,1.49,11.04,3.33c3.55,1.56,7.43,2.15,11.13,3.21c1.95,1.13,3.97,2.13,6.05,3c4.22,2.47,8.85,4.19,12.89,6.97
			c2.19,1.44,4.7,2.39,6.72,4.1c1.79,1.48,3.39,3.21,5.42,4.39c4.88,2.74,10.3,4.49,14.9,7.73c1.98,1.31,3.04,3.58,4.97,4.95
			c2.24,1.6,4.34,3.5,6.94,4.5c1.1,0.63,2.41,0.3,3.57,0.01c2.55-1.16,5.02-2.52,7.28-4.17c3.23-2.39,7.16-3.54,10.5-5.76
			c1.521-1.02,2.591-2.52,3.73-3.91c-0.061-1.49-0.55-2.85-1.79-3.75C1149.96,1093.06,1154.6,1090.46,1153.5,1085.92z"/>
	</g>
</g>
<g id="Light">
	<g id="XMLID_2_">
		<g>
			<path fill="#FFFFFF" d="M1373.93,1532.72c7.641,42.84,25.87,102.4,53.141,179.87c-46.5-67.88-83.931-117.79-114.261-149.18
				c21.261-8.771,41.66-19.03,61.101-30.67L1373.93,1532.72z"/>
			<path fill="#FFFFFF" d="M1201.89,1593.41l0.021,0.07c-10.311,42.609-17.33,104.949-23.08,187.55
				c-17.26-81.351-32.95-142.29-49.17-183.05c13.22,0.1,26.55-0.25,39.979-1.19C1180.51,1596.03,1191.26,1594.9,1201.89,1593.41z"/>
			<path fill="#FFFFFF" d="M1017.35,1582.1l-0.06,0.131c-25.98,35.239-56.53,90.51-93.81,165.569
				c16.65-82.66,26.5-145.3,27.71-188.97C972.5,1568.09,994.6,1575.95,1017.35,1582.1z"/>
			<path fill="#FFFFFF" d="M858.56,1503.86l-0.1,0.159c-37.21,22.851-86.68,63.051-150.3,119.53
				c47.37-71.3,80.42-126.12,97.77-166.21C822.34,1474.03,839.9,1489.65,858.56,1503.86z"/>
			<path fill="#FFFFFF" d="M741.83,1373.31l-0.22,0.061c-43.25,6.87-104.93,25.56-186.46,54.25
				c71.7-49.11,123.34-88.101,154.29-119.3C718.69,1330.89,729.48,1352.64,741.83,1373.31z"/>
			<path fill="#FFFFFF" d="M681.76,1204.31h-0.2c-42.66-11.329-107.4-18.85-194.85-24.93c86.16-18.28,149.41-34.8,190.06-52.05
				c-0.1,13.91,0.24,27.95,1.23,42.09C678.82,1181.19,680.08,1192.82,681.76,1204.31z"/>
			<path fill="#FFFFFF" d="M715.6,951.86c-9.82,22.62-18,46.12-24.25,70.36l-0.14-0.08c-34.84-26.89-92.03-58.75-171.27-98.11
				C606.93,941.56,671.74,951.55,715.6,951.86z"/>
			<path fill="#FFFFFF" d="M814.9,808.39c-17.48,17.26-33.61,35.82-48.18,55.57l-0.06-0.07c-22.25-37.72-63.48-88.73-122.47-155.17
				C718.2,757.88,774.45,791.62,814.9,808.39z"/>
			<path fill="#FFFFFF" d="M961.11,711.66c-23.12,9.55-45.22,20.93-66.17,33.93h-0.04c-6.41-43.39-25.32-106.18-54.78-189.88
				C890.12,628.7,929.63,680.9,961.11,711.66z"/>
			<path fill="#FFFFFF" d="M1140.17,676.74c-11.55-0.15-23.14,0.22-34.79,1.04c-14.22,0.99-28.24,2.62-42.03,4.85l-0.08,0.09
				c11.42-42.66,18.98-107.59,25.09-195.46C1106.55,573.01,1123.01,636.08,1140.17,676.74z"/>
			<path fill="#FFFFFF" d="M1343.71,520.49c-17.07,84.72-26.99,148.41-27.78,192.2c-22.12-9.49-45.06-17.11-68.68-22.9l-0.21,0.1
				C1273.63,654.89,1305.05,598.33,1343.71,520.49z"/>
			<path fill="#FFFFFF" d="M1559.03,644.75c-47.08,70.86-80.011,125.44-97.45,165.47c-16.55-16.67-34.41-31.85-53.33-45.61
				l-0.21,0.08C1445.33,741.93,1495.01,701.58,1559.03,644.75z"/>
			<path fill="#FFFFFF" d="M1712.04,840.67c-71.7,49.12-123.33,88.11-154.29,119.31c-9.25-22.57-20.04-44.32-32.39-64.99l0.22-0.06
				C1568.83,888.06,1630.52,869.37,1712.04,840.67z"/>
			<path fill="#FFFFFF" d="M1780.48,1088.91c-81,17.19-141.75,32.82-182.511,48.96c0.19-10.88-0.189-21.77-0.95-32.72
				c-0.939-13.31-2.42-26.45-4.439-39.4l-0.22-0.06C1634.99,1076.08,1697.51,1083.14,1780.48,1088.91z"/>
			<path fill="#FFFFFF" d="M1583.76,1251.97c35.311,25.65,89.9,55.74,163.49,92.29c-80.51-16.22-142.02-25.979-185.52-27.59
				C1570.73,1295.78,1578.06,1274.18,1583.76,1251.97z"/>
			<path fill="#FFFFFF" d="M1506.07,1413.45c23.229,36.71,62.529,84.85,116.93,146.13c-68.25-45.34-121.4-77.561-160.98-95.45
				c15.961-15.78,30.66-32.68,44.08-50.57L1506.07,1413.45z"/>
		</g>
		<g>
			<path fill="none" stroke="#2E3192" stroke-width="0.5" stroke-miterlimit="10" d="M1592.36,1065.69
				c42.63,10.39,105.149,17.45,188.12,23.22c-81,17.19-141.75,32.82-182.511,48.96c0.19-10.88-0.189-21.77-0.95-32.72
				c-0.939-13.31-2.42-26.45-4.439-39.4L1592.36,1065.69z"/>
			<path fill="none" stroke="#2E3192" stroke-width="0.5" stroke-miterlimit="10" d="M1583.76,1251.97
				c35.311,25.65,89.9,55.74,163.49,92.29c-80.51-16.22-142.02-25.979-185.52-27.59
				C1570.73,1295.78,1578.06,1274.18,1583.76,1251.97z"/>
			<path fill="none" stroke="#2E3192" stroke-width="0.5" stroke-miterlimit="10" d="M1583.62,1251.87c0.05,0.03,0.09,0.07,0.14,0.1
				v-0.01L1583.62,1251.87z"/>
			<path fill="none" stroke="#2E3192" stroke-width="0.5" stroke-miterlimit="10" d="M1462.02,1464.13
				c15.961-15.78,30.66-32.68,44.08-50.57l-0.029-0.109c23.229,36.71,62.529,84.85,116.93,146.13
				C1554.75,1514.24,1501.6,1482.02,1462.02,1464.13z"/>
			<path fill="none" stroke="#2E3192" stroke-width="0.5" stroke-miterlimit="10" d="M1312.81,1563.41
				c21.261-8.771,41.66-19.03,61.101-30.67l0.02-0.021c7.641,42.84,25.87,102.4,53.141,179.87
				C1380.57,1644.71,1343.14,1594.8,1312.81,1563.41z"/>
			<path fill="none" stroke="#2E3192" stroke-width="0.5" stroke-miterlimit="10" d="M1201.89,1593.41l0.021,0.07
				c-10.311,42.609-17.33,104.949-23.08,187.55c-17.26-81.351-32.95-142.29-49.17-183.05c13.22,0.1,26.55-0.25,39.979-1.19
				C1180.51,1596.03,1191.26,1594.9,1201.89,1593.41z"/>
			<path fill="none" stroke="#2E3192" stroke-width="0.5" stroke-miterlimit="10" d="M951.19,1558.83
				c21.31,9.26,43.41,17.12,66.16,23.27l-0.06,0.131c-25.98,35.239-56.53,90.51-93.81,165.569
				C940.13,1665.14,949.98,1602.5,951.19,1558.83z"/>
			<path fill="none" stroke="#2E3192" stroke-width="0.5" stroke-miterlimit="10" d="M805.93,1457.34
				c16.41,16.69,33.97,32.311,52.63,46.521l-0.1,0.159c-37.21,22.851-86.68,63.051-150.3,119.53
				C755.53,1552.25,788.58,1497.43,805.93,1457.34z"/>
			<path fill="none" stroke="#2E3192" stroke-width="0.5" stroke-miterlimit="10" d="M741.83,1373.31l-0.22,0.061
				c-43.25,6.87-104.93,25.56-186.46,54.25c71.7-49.11,123.34-88.101,154.29-119.3C718.69,1330.89,729.48,1352.64,741.83,1373.31z"
				/>
			<path fill="none" stroke="#2E3192" stroke-width="0.5" stroke-miterlimit="10" d="M676.77,1127.33
				c-0.1,13.91,0.24,27.95,1.23,42.09c0.82,11.771,2.08,23.4,3.76,34.89h-0.2c-42.66-11.329-107.4-18.85-194.85-24.93
				C572.87,1161.1,636.12,1144.58,676.77,1127.33z"/>
			<path fill="none" stroke="#2E3192" stroke-width="0.5" stroke-miterlimit="10" d="M715.6,951.86
				c-9.82,22.62-18,46.12-24.25,70.36l-0.14-0.08c-34.84-26.89-92.03-58.75-171.27-98.11C606.93,941.56,671.74,951.55,715.6,951.86z
				"/>
			<path fill="none" stroke="#2E3192" stroke-width="0.5" stroke-miterlimit="10" d="M814.9,808.39
				c-17.48,17.26-33.61,35.82-48.18,55.57l-0.06-0.07c-22.25-37.72-63.48-88.73-122.47-155.17
				C718.2,757.88,774.45,791.62,814.9,808.39z"/>
			<path fill="none" stroke="#2E3192" stroke-width="0.5" stroke-miterlimit="10" d="M961.11,711.66
				c-23.12,9.55-45.22,20.93-66.17,33.93h-0.04c-6.41-43.39-25.32-106.18-54.78-189.88C890.12,628.7,929.63,680.9,961.11,711.66z"/>
			<path fill="none" stroke="#2E3192" stroke-width="0.5" stroke-miterlimit="10" d="M1140.17,676.74
				c-11.55-0.15-23.14,0.22-34.79,1.04c-14.22,0.99-28.24,2.62-42.03,4.85l-0.08,0.09c11.42-42.66,18.98-107.59,25.09-195.46
				C1106.55,573.01,1123.01,636.08,1140.17,676.74z"/>
			<path fill="none" stroke="#2E3192" stroke-width="0.5" stroke-miterlimit="10" d="M1343.71,520.49
				c-17.07,84.72-26.99,148.41-27.78,192.2c-22.12-9.49-45.06-17.11-68.68-22.9l-0.21,0.1
				C1273.63,654.89,1305.05,598.33,1343.71,520.49z"/>
			<path fill="none" stroke="#2E3192" stroke-width="0.5" stroke-miterlimit="10" d="M1408.04,764.69
				c37.29-22.76,86.97-63.11,150.99-119.94c-47.08,70.86-80.011,125.44-97.45,165.47c-16.55-16.67-34.41-31.85-53.33-45.61
				L1408.04,764.69z"/>
			<path fill="none" stroke="#2E3192" stroke-width="0.5" stroke-miterlimit="10" d="M1525.36,894.99l0.22-0.06
				c43.25-6.87,104.939-25.56,186.46-54.26c-71.7,49.12-123.33,88.11-154.29,119.31C1548.5,937.41,1537.71,915.66,1525.36,894.99z"
				/>
		</g>
	</g>
</g>
<g id="XMLID_6_">
	<g>
		<path fill="#00A651" d="M1097.38,717.53l8.9,127.32c-46.54,4.36-92.69,20.04-134.25,47.86h-0.02l-0.88,0.6
			c-66.52,44.86-108.55,112.43-122.73,185.4c-14.13,72.64-0.64,150.67,43.75,217l0.7,2.03l1.01,0.5
			c28.04,40.99,64.76,72.56,106.02,93.91l-55.95,114.71c-61.32-31.13-115.8-77.841-156.98-138.88l0.01-0.011
			c-64.56-95.72-84.22-208.55-63.8-313.6c20.42-105.05,80.9-202.31,176.61-266.87l0.01,0.01
			C960.84,746.33,1028.86,723.42,1097.38,717.53z"/>
	</g>
	<g>
		<path fill="none" stroke="#2E3192" stroke-width="0.5" stroke-miterlimit="10" d="M899.77,787.5
			c-95.71,64.56-156.19,161.82-176.61,266.87c-20.42,105.05-0.76,217.88,63.8,313.6l-0.01,0.011
			c41.18,61.039,95.66,107.75,156.98,138.88l55.95-114.71c-41.26-21.351-77.98-52.92-106.02-93.91l-1.01-0.5l-0.7-2.03
			c-44.39-66.33-57.88-144.36-43.75-217c14.18-72.97,56.21-140.54,122.73-185.4l0.88-0.6h0.02c41.56-27.82,87.71-43.5,134.25-47.86
			l-8.9-127.32c-68.52,5.89-136.54,28.8-197.6,69.98L899.77,787.5z"/>
	</g>
</g>
<g id="XMLID_7_">
	<g>
		<path fill="#21409A" d="M1391.59,1267.87l114.72,55.95c-31.13,61.319-77.84,115.8-138.88,156.979l-0.01-0.01
			c-95.72,64.56-208.55,84.22-313.6,63.8c-33.44-6.5-66.09-17.07-97.14-31.53l55.94-114.71c20.99,9.591,43.01,16.62,65.54,21
			c72.979,14.19,151.38,0.53,217.89-44.33l1.61-1.079l0.02-0.051C1338.68,1345.84,1370.25,1309.13,1391.59,1267.87z"/>
	</g>
	<g>
		<path fill="none" stroke="#2E3192" stroke-width="0.5" stroke-miterlimit="10" d="M1506.31,1323.82l-114.72-55.95
			c-21.34,41.26-52.91,77.97-93.91,106.02l-0.02,0.051l-1.61,1.079c-66.51,44.86-144.91,58.521-217.89,44.33
			c-22.53-4.38-44.55-11.409-65.54-21l-55.94,114.71c31.05,14.46,63.7,25.03,97.14,31.53c105.05,20.42,217.88,0.76,313.6-63.8
			l0.01,0.01C1428.47,1439.62,1475.18,1385.14,1506.31,1323.82z"/>
	</g>
</g>
<g id="XMLID_5_">
	<g>
		<path fill="#00A651" d="M1484.13,906.22c61.45,94.44,79.91,204.81,59.91,307.709c-6.5,33.44-17.07,66.08-31.53,97.141
			l-114.71-55.95c9.59-20.99,16.62-43,21-65.53c13.771-70.82,1.3-146.76-40.479-212L1484.13,906.22z"/>
	</g>
	<g>
		<path fill="none" stroke="#2E3192" stroke-width="0.5" stroke-miterlimit="10" d="M1484.13,906.22l-105.81,71.37
			c41.779,65.24,54.25,141.18,40.479,212c-4.38,22.53-11.41,44.54-21,65.53l114.71,55.95c14.46-31.061,25.03-63.7,31.53-97.141
			C1564.04,1111.03,1545.58,1000.66,1484.13,906.22z"/>
	</g>
</g>
<g id="XMLID_4_">
	<g>
		<path fill="#ED1C24" d="M1476.26,894.51l-105.819,71.38c-27.66-38.97-63.271-69.12-103.12-89.73l55.949-114.72
			C1382.63,791.57,1435.58,836.31,1476.26,894.51z"/>
	</g>
	<g>
		<path fill="none" stroke="#2E3192" stroke-width="0.5" stroke-miterlimit="10" d="M1267.32,876.16
			c39.85,20.61,75.46,50.76,103.12,89.73l105.819-71.38c-40.68-58.2-93.63-102.94-152.99-133.07L1267.32,876.16z"/>
	</g>
</g>
<g id="XMLID_3_">
	<g>
		<path fill="#ED1C24" d="M1310.52,755.24l-55.949,114.71c-20.99-9.59-43-16.62-65.53-21c-22.54-4.38-45.59-6.1-68.65-5.07
			l-8.91-127.32c34.22-1.78,68.45,0.65,101.89,7.15C1246.81,730.21,1279.46,740.78,1310.52,755.24z"/>
	</g>
	<g>
		<path fill="none" stroke="#2E3192" stroke-width="0.5" stroke-miterlimit="10" d="M1120.39,843.88
			c23.06-1.03,46.11,0.69,68.65,5.07c22.53,4.38,44.54,11.41,65.53,21l55.949-114.71c-31.06-14.46-63.71-25.03-97.149-31.53
			c-33.44-6.5-67.67-8.93-101.89-7.15L1120.39,843.88z"/>
	</g>
</g>
</svg>
