<?xml version="1.0" encoding="utf-8"?>
<!-- Generator: Adobe Illustrator 16.0.0, SVG Export Plug-In . SVG Version: 6.00 Build 0)  -->
<svg version="1.2" baseProfile="tiny" id="Layer_1" xmlns="http://www.w3.org/2000/svg" xmlns:xlink="http://www.w3.org/1999/xlink"
	 x="0px" y="0px" width="2267.721px" height="2267.721px" viewBox="0 0 2267.721 2267.721" xml:space="preserve">
<g>
	<g id="XMLID_1_">
		<g>
			<path d="M1894.19,1080.96c-373.74,79.301-380.94,130.45-39.069,300.24c-374.23-75.399-399.4-32.16-146.102,253.16
				c-317.789-211.13-357.109-180.189-230.359,179.909c-215.72-314.909-265.369-300.659-291.88,80.471
				c-79.29-373.729-130.439-380.931-300.239-39.061c75.409-374.239,32.159-399.41-253.16-146.101
				c211.13-317.8,180.189-357.119-179.91-230.369c314.91-215.711,300.67-265.36-80.471-291.87
				c373.74-79.301,380.94-130.45,39.07-300.24c374.23,75.399,399.4,32.16,146.101-253.16
				c317.79,211.13,357.109,180.19,230.359-179.91c215.72,314.91,265.37,300.66,291.88-80.47
				c79.301,373.729,130.439,380.93,300.24,39.06c-75.4,374.24-32.16,399.41,253.159,146.101
				c-211.14,317.8-180.188,357.12,179.91,230.37C1498.81,1004.81,1513.051,1054.45,1894.19,1080.96z"/>
		</g>
		<g>
			<path fill="none" stroke="#2E3192" stroke-width="0.5" stroke-miterlimit="10" d="M1186.78,1894.74
				c-79.29-373.729-130.439-380.931-300.239-39.061c75.409-374.239,32.159-399.41-253.16-146.101
				c211.13-317.8,180.189-357.119-179.91-230.369c314.91-215.711,300.67-265.36-80.471-291.87
				c373.74-79.301,380.94-130.45,39.07-300.24c374.23,75.399,399.4,32.16,146.101-253.16
				c317.79,211.13,357.109,180.19,230.359-179.91c215.72,314.91,265.37,300.66,291.88-80.47
				c79.301,373.729,130.439,380.93,300.24,39.06c-75.4,374.24-32.16,399.41,253.159,146.101
				c-211.14,317.8-180.188,357.12,179.91,230.37c-314.91,215.72-300.67,265.359,80.471,291.87
				c-373.739,79.3-380.94,130.449-39.069,300.239c-374.23-75.399-399.4-32.16-146.102,253.16
				c-317.789-211.13-357.109-180.19-230.359,179.909C1262.94,1499.36,1213.291,1513.61,1186.78,1894.74z"/>
		</g>
	</g>
	<g id="XMLID_8_">
		<g>
			<path fill="#FFFFFF" d="M1249.25,987.131c0.051,1.87-1.359,3.449-1.17,5.34c0.2,1.899-1.289,3.27-2.399,4.6
				c0.12,1.21,0.319,2.431,0.261,3.66c-0.96,2.71-2.641,5.13-3.29,7.95c-0.591,2.64-1.29,5.25-1.83,7.899
				c-0.36,1.811,0.75,3.33,1.511,4.87c0.579,1.58-0.181,3.2-0.621,4.721c-0.92,2.81-3.029,5-4.22,7.67
				c-0.78,1.689-0.409,3.54-0.37,5.319c-0.459,2-1.51,3.78-2.47,5.57c-1.33,2.61-1.42,5.6-1.33,8.46
				c-0.96,4.32-2.051,8.63-3.601,12.77c-0.35,2.591,0.641,5.181,0.601,7.78c-0.301,1.32-0.86,2.561-1.181,3.88
				c-0.02,1.69,0.029,3.4-0.29,5.08c-0.54,1.48-1.359,2.84-1.931,4.301c-0.739,1.709-1.029,3.709-2.51,4.989
				c-1.43,1.66-3.9,1.9-5.189,3.69c-1.101,1.42-2.5,2.699-3.04,4.46c-0.71,2.12-2.399,3.7-3.431,5.649
				c-0.369,2.881,1.37,5.391,1.42,8.221c0.631,6.18,1.28,12.359,1.931,18.54c0.149,2.05,2.591,2.59,4.021,3.601
				c-0.189,1.699-0.689,3.43-2.029,4.59c-2.391,2.061-4.721,4.29-7.601,5.66c0.189,1.84,0.34,3.699,1.069,5.43
				c0.66,1.67-0.449,3.381-1.29,4.78c-2.779,2.319-5.92,4.17-9.09,5.89c-2.29,2.171-4.41,4.521-6.42,6.961
				c-1.689,1.81-3.83,3.17-5.221,5.279c-2.579,2.42-6.069,3.83-9.609,3.91c-0.431,1.319-1.189,2.569-1.261,3.97
				c1.062,4.38,4.44,7.641,6.4,11.601c0.521,3.84,0.891,7.71,1.229,11.569c-0.271,2.57-1.189,5.021-2.141,7.41
				c-0.55,1.12-0.359,2.439,0,3.601c1.25,2.79,0.96,5.939,1.45,8.899c0.68,4.069,0.069,8.17,0.12,12.271
				c0.72,4.681-2.021,9.021-2.091,13.66c0.38,3.46,0.58,6.949,1.199,10.39c0.931,2.631,1.15,5.53,0.45,8.25
				c-0.68,1.631-1.92,2.94-2.689,4.521c-0.239,2.051-0.439,4.141-1.439,5.99c1.141,0.189,2.28,0.34,3.45,0.38
				c-0.101,0.75,0.061,1.66-0.65,2.171c-1.38,1.359-2.68,2.8-3.63,4.5c-3.54,0.438-7.1,0.76-10.649,1.14
				c-2.021,0.04-3.391,2.069-5.489,1.811c-2.78-0.62-5.511-2.239-8.45-1.511c-2.021,0.131-3.17,2.11-4.92,2.891
				c-1.351-0.289-3.12-0.689-3.49-2.25c0.521-2.029,2.49-3.119,3.86-4.529c2.079-2.141,5.14-2.66,7.819-3.67
				c1.729-0.771,3.659-0.69,5.479-1.03c1.33-0.899,1.46-2.64,1.91-4.05c1.04-2.979-0.181-6.101-1.131-8.931
				c-1.311-3.79-1.431-7.931-3.359-11.489c-0.55-2.541-0.311-5.229-1.24-7.681c-1.109-4.46-0.85-9.08-0.88-13.61
				c0.71-1.479,1.86-2.85,1.851-4.579c-1.149-0.851-2.391-1.62-3.38-2.649c-0.341-1.45-0.101-2.939,0.039-4.391
				c0-1.729-0.43-3.431-0.38-5.16c0.301-1.33,0.801-2.59,1-3.92c-0.12-3.101-2.26-5.561-3.739-8.141
				c-1.979-1.311-4.561-1.59-6.21-3.41c-1.38-1.18-0.91-3.149-1.561-4.66c-1.54-1.959-3.68-3.26-5.58-4.818
				c-1.14-1.131-2.979-2.75-1.729-4.45c1.149-1.54,0.971-3.431,0.649-5.221c2.13-1.939,2.551-5.399,0.681-7.67
				c-0.37-1.569-2.04-0.97-3.21-1.021c0.21,3.04,0.681,6.051,0.819,9.09c-0.25,2.12-2.35,3.19-3.729,4.57
				c-1.169,1.21-3.04,1.1-4.589,1.04c-2.76-1.229-5.061-3.19-7.561-4.84c-3.79-0.301-6.88,2.27-10.09,3.88
				c-3.38,2.189-7.52,1.77-11.3,2.479c-1.41,1.091-3.04,1.921-4.89,1.57c-1.891-0.59-3.9-1.15-5.33-2.58
				c-2.24-2.26-4.32-4.689-6.33-7.14c-2.96-4.24-2.71-9.591-3.221-14.521c0.57-3.029,1.291-6.31,3.48-8.648
				c1.21-1.49,2.35-3.052,3.9-4.211c1.859-1.46,3.54-3.351,5.85-4.069c3.37-0.46,6.77-0.72,10.15-1.08
				c0.06-1.8-1.131-3.021-2.2-4.28c-0.44-1.34-0.33-2.8-0.79-4.13c-1.42-1.72-3.32-2.96-5.41-3.72c-1.04-2.8-1.1-7.09-4.7-7.84
				c-1.96-0.28-2.739-2.3-4.1-3.47c-3.101-2.95-6.08-6.011-9.09-9.061c-1.58-1.56-2.59-3.66-4.41-4.96
				c-2.12-0.79-4.49-0.67-6.54-1.67c-5.25-2.51-9.45-6.64-14.01-10.18c-4.71-4.41-11.101-6.23-16.471-9.63
				c-2.13-1.74-4.25-3.48-6.399-5.19c-1.42-1.05-1.99-2.78-3.021-4.14c-1.04-1.061-2.59-1.221-3.93-1.66
				c-0.36-0.851-0.73-1.681-1.07-2.53c-3.74-1.69-7.859-2.25-11.609-3.95c-1.311-0.68-3.021-0.699-4.08-1.76
				c-0.33-2.38-0.461-4.77-0.84-7.12c-0.761-0.81-1.98-1.439-1.95-2.689c-0.24-2.83-0.63-5.641-0.841-8.471
				c0.351-1.529,1.5-2.77,1.891-4.3c0.08-1.109-0.471-2.109-0.82-3.12c-0.4-1.66-0.34-3.399-0.82-5.05
				c-0.97-3.08-0.81-6.38-1.39-9.54c-0.49-1.46-1.99-2.46-2.07-4.07c-0.51-4.96-1.1-9.92-1.529-14.89c2.18-1.43,3.59-4.01,6.31-4.56
				c3.22-0.511,6.6-1.25,9.82-0.36c1.979,0.479,4.05,0.52,5.99,1.17c2.369,0.71,3.09,3.73,5.59,4.23
				c1.979,0.979,4.149,0.149,6.229,0.18c3.41,0.39,6.11,2.859,9.42,3.57c4.261,0.829,7.761,3.619,11.88,4.81
				c1.59,0.43,3.061,1.19,4.521,1.93c4.71,2.34,10.1,2.851,14.79,5.24c3.46,1.69,7.38,2.06,10.939,3.521
				c3.96,1.8,8.16,3.18,11.73,5.75c3.09,1.529,6.65,1.949,9.67,3.729c3.47,2.06,7.51,2.76,11.15,4.44
				c2.939,0.149,6,0.52,8.869-0.431c1.291-0.43,2.66-0.6,4.021-0.61c1.42,0.301,2.68,1.36,4.18,1.16
				c9.261-1.01,18.54-1.79,27.801-2.77c2.72,0.35,5.439-0.33,8.159,0.01c3.061-0.03,6.07,0.47,9.12,0.521
				c1.979,0.76,3.899,1.649,5.88,2.409c2.12-1.38,3.041-3.789,4.44-5.779c1.529-2.33,2.51-4.98,4.1-7.28
				c1.761-2.42,2.351-5.43,3.761-8.03c4.399-7.84,7.561-16.3,11.771-24.24c1.229-3.05,0.699-6.439,1.29-9.6
				c1.09-3.45,1.26-7.08,1.989-10.6c0.439-2.45,2.631-3.88,4.399-5.351c1.561-1.239,2.791-2.97,4.7-3.689
				c1.229-0.33,2.569-0.29,3.72-0.9c2.851-1.359,5.851-2.39,8.812-3.479c3.63-0.641,7.119,1.51,9.938,3.59
				c1.7,1.82,4.261,3.5,4.19,6.26C1248.6,980.91,1249.11,984.001,1249.25,987.131z"/>
		</g>
		<g>
			<path fill="none" stroke="#2E3192" stroke-width="0.5" stroke-miterlimit="10" d="M1162.091,1043.95
				c2.72,0.351,5.439-0.33,8.159,0.01c3.061-0.029,6.07,0.471,9.12,0.521c1.979,0.76,3.899,1.65,5.88,2.41
				c2.12-1.38,3.041-3.79,4.44-5.78c1.529-2.33,2.51-4.979,4.1-7.28c1.761-2.42,2.351-5.43,3.761-8.029
				c4.399-7.841,7.561-16.301,11.771-24.24c1.229-3.05,0.699-6.44,1.29-9.601c1.09-3.449,1.26-7.079,1.989-10.6
				c0.439-2.45,2.631-3.88,4.399-5.35c1.561-1.24,2.791-2.971,4.7-3.69c1.229-0.33,2.569-0.29,3.72-0.899
				c2.851-1.36,5.851-2.391,8.812-3.48c3.63-0.64,7.119,1.51,9.938,3.59c1.7,1.82,4.261,3.5,4.19,6.26
				c0.239,3.12,0.75,6.211,0.89,9.341c0.051,1.87-1.359,3.45-1.17,5.34c0.2,1.899-1.29,3.27-2.4,4.6
				c0.121,1.21,0.32,2.431,0.262,3.66c-0.96,2.71-2.641,5.13-3.29,7.95c-0.591,2.64-1.29,5.25-1.83,7.9
				c-0.36,1.81,0.75,3.329,1.51,4.869c0.58,1.58-0.18,3.2-0.62,4.721c-0.92,2.81-3.029,5-4.22,7.67
				c-0.78,1.689-0.41,3.54-0.37,5.319c-0.46,2-1.51,3.78-2.47,5.57c-1.33,2.61-1.42,5.6-1.33,8.46
				c-0.96,4.32-2.051,8.63-3.601,12.77c-0.35,2.591,0.641,5.181,0.601,7.78c-0.301,1.32-0.86,2.561-1.181,3.88
				c-0.021,1.69,0.029,3.4-0.29,5.08c-0.54,1.48-1.359,2.84-1.931,4.301c-0.74,1.709-1.029,3.709-2.51,4.989
				c-1.43,1.66-3.9,1.9-5.189,3.69c-1.101,1.42-2.5,2.699-3.04,4.46c-0.71,2.12-2.399,3.7-3.431,5.649
				c-0.37,2.881,1.37,5.391,1.42,8.221c0.631,6.18,1.28,12.359,1.931,18.54c0.149,2.05,2.591,2.59,4.021,3.601
				c-0.189,1.699-0.689,3.43-2.029,4.59c-2.391,2.061-4.721,4.29-7.601,5.66c0.189,1.84,0.34,3.699,1.069,5.43
				c0.66,1.67-0.449,3.381-1.29,4.78c-2.779,2.319-5.92,4.17-9.09,5.89c-2.29,2.171-4.41,4.521-6.421,6.961
				c-1.688,1.81-3.829,3.17-5.22,5.279c-2.58,2.42-6.069,3.83-9.609,3.91c-0.431,1.319-1.189,2.569-1.261,3.97
				c1.062,4.38,4.44,7.641,6.4,11.601c0.52,3.84,0.89,7.71,1.229,11.569c-0.27,2.57-1.188,5.021-2.14,7.41
				c-0.55,1.12-0.36,2.439,0,3.601c1.25,2.79,0.96,5.939,1.45,8.899c0.68,4.069,0.068,8.17,0.12,12.271
				c0.72,4.681-2.021,9.021-2.091,13.66c0.38,3.46,0.58,6.949,1.199,10.39c0.931,2.631,1.15,5.53,0.45,8.25
				c-0.68,1.631-1.92,2.94-2.689,4.521c-0.239,2.051-0.439,4.141-1.439,5.99c1.14,0.189,2.28,0.34,3.45,0.38
				c-0.102,0.75,0.06,1.66-0.65,2.171c-1.38,1.359-2.68,2.8-3.63,4.5c-3.54,0.438-7.1,0.76-10.649,1.14
				c-2.021,0.04-3.391,2.069-5.489,1.811c-2.78-0.62-5.511-2.239-8.45-1.511c-2.021,0.131-3.17,2.11-4.92,2.891
				c-1.352-0.289-3.12-0.689-3.49-2.25c0.521-2.029,2.49-3.119,3.86-4.529c2.079-2.141,5.14-2.66,7.818-3.67
				c1.73-0.771,3.66-0.69,5.48-1.03c1.33-0.899,1.46-2.64,1.91-4.05c1.04-2.979-0.182-6.101-1.131-8.931
				c-1.311-3.79-1.431-7.931-3.359-11.489c-0.55-2.541-0.312-5.229-1.24-7.681c-1.109-4.46-0.85-9.08-0.88-13.61
				c0.71-1.479,1.86-2.85,1.85-4.579c-1.148-0.851-2.39-1.62-3.38-2.649c-0.34-1.45-0.1-2.939,0.04-4.391
				c0-1.729-0.43-3.431-0.38-5.16c0.3-1.33,0.8-2.59,1-3.92c-0.12-3.101-2.26-5.561-3.739-8.141c-1.979-1.311-4.561-1.59-6.211-3.41
				c-1.38-1.18-0.909-3.149-1.56-4.66c-1.54-1.959-3.68-3.26-5.58-4.818c-1.14-1.131-2.979-2.75-1.729-4.45
				c1.149-1.54,0.971-3.431,0.649-5.221c2.13-1.939,2.55-5.399,0.681-7.67c-0.37-1.569-2.04-0.97-3.21-1.021
				c0.21,3.04,0.681,6.051,0.819,9.09c-0.25,2.12-2.35,3.19-3.729,4.57c-1.169,1.21-3.04,1.1-4.589,1.04
				c-2.761-1.229-5.061-3.19-7.561-4.84c-3.79-0.301-6.88,2.27-10.09,3.88c-3.38,2.189-7.52,1.77-11.3,2.479
				c-1.41,1.091-3.04,1.921-4.891,1.57c-1.89-0.59-3.899-1.15-5.329-2.58c-2.24-2.26-4.32-4.689-6.33-7.14
				c-2.96-4.24-2.71-9.591-3.221-14.521c0.57-3.029,1.29-6.31,3.48-8.648c1.21-1.49,2.35-3.052,3.9-4.211
				c1.859-1.46,3.539-3.351,5.85-4.069c3.37-0.46,6.77-0.72,10.15-1.08c0.06-1.8-1.131-3.021-2.2-4.28
				c-0.44-1.34-0.33-2.8-0.79-4.13c-1.42-1.72-3.32-2.96-5.41-3.72c-1.04-2.8-1.1-7.09-4.7-7.84c-1.96-0.28-2.74-2.3-4.1-3.47
				c-3.101-2.95-6.08-6.011-9.09-9.061c-1.58-1.56-2.591-3.66-4.41-4.96c-2.12-0.79-4.49-0.67-6.54-1.67
				c-5.25-2.51-9.45-6.64-14.01-10.18c-4.711-4.41-11.101-6.23-16.471-9.63c-2.13-1.74-4.25-3.48-6.399-5.19
				c-1.421-1.05-1.99-2.78-3.021-4.14c-1.04-1.061-2.59-1.221-3.93-1.66c-0.36-0.851-0.73-1.681-1.07-2.53
				c-3.74-1.69-7.859-2.25-11.609-3.95c-1.311-0.68-3.021-0.699-4.08-1.76c-0.33-2.38-0.461-4.77-0.841-7.12
				c-0.76-0.81-1.979-1.439-1.95-2.689c-0.239-2.83-0.63-5.641-0.84-8.471c0.351-1.529,1.5-2.77,1.891-4.3
				c0.08-1.109-0.471-2.109-0.82-3.12c-0.4-1.66-0.34-3.399-0.82-5.05c-0.97-3.08-0.81-6.38-1.39-9.54
				c-0.49-1.46-1.99-2.46-2.07-4.07c-0.51-4.96-1.1-9.92-1.53-14.89c2.181-1.43,3.591-4.01,6.311-4.56
				c3.22-0.511,6.6-1.25,9.82-0.36c1.979,0.479,4.05,0.52,5.989,1.17c2.37,0.71,3.091,3.73,5.591,4.23
				c1.979,0.979,4.149,0.149,6.229,0.18c3.41,0.39,6.11,2.859,9.42,3.57c4.26,0.829,7.76,3.619,11.88,4.81
				c1.59,0.43,3.061,1.19,4.521,1.93c4.71,2.34,10.1,2.851,14.79,5.24c3.46,1.69,7.38,2.06,10.939,3.521
				c3.96,1.8,8.16,3.18,11.73,5.75c3.09,1.529,6.649,1.949,9.67,3.729c3.47,2.06,7.51,2.76,11.15,4.44
				c2.939,0.149,6,0.52,8.869-0.431c1.29-0.43,2.66-0.6,4.021-0.61c1.42,0.301,2.68,1.36,4.18,1.16
				C1143.551,1045.71,1152.83,1044.93,1162.091,1043.95z"/>
		</g>
	</g>
	<g id="XMLID_9_">
		<g>
			<path d="M1153.5,1085.921c1.101,4.54-3.539,7.14-4.959,10.96c1.239,0.899,1.729,2.26,1.789,3.75
				c-1.14,1.39-2.209,2.89-3.729,3.909c-3.34,2.221-7.271,3.37-10.5,5.761c-2.26,1.649-4.729,3.01-7.28,4.17
				c-1.16,0.29-2.47,0.62-3.569-0.01c-2.601-1-4.7-2.9-6.94-4.5c-1.93-1.37-2.99-3.641-4.97-4.95c-4.601-3.24-10.021-4.99-14.9-7.73
				c-2.03-1.18-3.63-2.91-5.42-4.39c-2.02-1.71-4.53-2.66-6.72-4.1c-4.04-2.78-8.67-4.5-12.891-6.971c-2.079-0.87-4.1-1.87-6.05-3
				c-3.7-1.06-7.58-1.649-11.13-3.21c-3.43-1.84-7.43-1.97-11.04-3.33c-4.11-1.52-8.42-2.3-12.61-3.529
				c-1.77-0.29-3.539,0.49-5.319,0.31c-1.5-1.68-1.94-3.979-3.24-5.78c-1.02-1.93-2.81-3.199-4.5-4.479
				c-0.49-1.86,0.54-3.42,1.23-5.05c0.06-2.61-0.79-5.15-0.65-7.75c0.51-1.16,1.2-2.221,1.84-3.301
				c0.811-0.029,1.62-0.09,2.42-0.039c0.29,3.26,0.48,6.569,1.74,9.64c1.09,1.39,2.66,2.41,4.4,2.74
				c3.25,0.729,6.529,1.38,9.779,2.109c4.011-0.479,8.301-0.189,11.94-2.239c3.53-0.181,6.8-1.681,10.34-1.73
				c1.76,0.07,2.74,1.72,3.72,2.96c2.3,0.271,4.62,0.45,6.92,0.74c2.601,0.26,4.13,2.72,6.54,3.489
				c2.54,0.891,4.66,2.711,7.29,3.391c4.551,1.84,7.74,5.88,12.261,7.8c3.47,2.41,7.279,5.28,11.76,4.71
				c3.06,1.28,6.189,2.38,9.37,3.311c2.95,0.89,5.64,2.449,8.569,3.359c3.82,0.561,7.529,1.73,11.359,2.24
				c1.86-0.12,3.71,0.09,5.49,0.65C1148.32,1086.79,1150.94,1085.58,1153.5,1085.921z"/>
		</g>
		<g>
			<path fill="none" stroke="#2E3192" stroke-width="0.5" stroke-miterlimit="10" d="M1153.5,1085.921
				c-2.56-0.34-5.18,0.869-7.659-0.09c-1.78-0.561-3.63-0.771-5.49-0.65c-3.83-0.51-7.54-1.68-11.359-2.24
				c-2.93-0.91-5.62-2.47-8.569-3.359c-3.181-0.931-6.311-2.03-9.37-3.311c-4.48,0.57-8.29-2.3-11.761-4.71
				c-4.52-1.92-7.709-5.96-12.26-7.8c-2.63-0.681-4.75-2.5-7.29-3.391c-2.41-0.77-3.939-3.229-6.54-3.489
				c-2.3-0.29-4.62-0.471-6.92-0.74c-0.979-1.24-1.96-2.89-3.72-2.96c-3.54,0.05-6.811,1.55-10.34,1.729
				c-3.641,2.051-7.931,1.761-11.94,2.24c-3.25-0.729-6.529-1.38-9.779-2.11c-1.74-0.329-3.311-1.35-4.4-2.739
				c-1.26-3.07-1.45-6.38-1.74-9.641c-0.8-0.05-1.609,0.011-2.42,0.04c-0.64,1.08-1.33,2.141-1.84,3.301
				c-0.141,2.6,0.71,5.14,0.65,7.75c-0.69,1.63-1.721,3.189-1.23,5.05c1.689,1.28,3.48,2.55,4.5,4.479
				c1.3,1.801,1.74,4.101,3.24,5.78c1.779,0.181,3.55-0.6,5.319-0.31c4.19,1.229,8.5,2.01,12.61,3.529
				c3.61,1.36,7.61,1.49,11.04,3.33c3.55,1.561,7.43,2.15,11.13,3.21c1.95,1.13,3.97,2.13,6.05,3c4.221,2.47,8.851,4.19,12.891,6.97
				c2.189,1.44,4.7,2.391,6.72,4.101c1.79,1.479,3.39,3.21,5.42,4.39c4.88,2.74,10.3,4.49,14.9,7.73
				c1.979,1.31,3.04,3.58,4.97,4.949c2.24,1.601,4.34,3.5,6.94,4.5c1.1,0.631,2.409,0.301,3.569,0.011
				c2.55-1.16,5.021-2.521,7.28-4.17c3.229-2.391,7.16-3.54,10.5-5.761c1.521-1.02,2.591-2.52,3.729-3.91
				c-0.061-1.489-0.55-2.85-1.79-3.75C1149.961,1093.06,1154.6,1090.46,1153.5,1085.921z"/>
		</g>
	</g>
	<g id="Light">
		<g id="XMLID_2_">
			<g>
				<path fill="#FFFFFF" d="M1373.93,1532.72c7.641,42.84,25.87,102.399,53.141,179.87c-46.5-67.881-83.931-117.79-114.261-149.181
					c21.261-8.771,41.66-19.03,61.102-30.67L1373.93,1532.72z"/>
				<path fill="#FFFFFF" d="M1201.89,1593.41l0.021,0.07c-10.311,42.609-17.329,104.949-23.079,187.55
					c-17.261-81.351-32.95-142.29-49.171-183.05c13.221,0.1,26.551-0.25,39.979-1.19
					C1180.51,1596.03,1191.26,1594.9,1201.89,1593.41z"/>
				<path fill="#FFFFFF" d="M1017.35,1582.1l-0.06,0.131c-25.98,35.239-56.53,90.51-93.811,165.569
					c16.65-82.66,26.5-145.301,27.71-188.971C972.5,1568.091,994.6,1575.95,1017.35,1582.1z"/>
				<path fill="#FFFFFF" d="M858.56,1503.86l-0.1,0.159c-37.211,22.851-86.681,63.051-150.301,119.53
					c47.37-71.301,80.42-126.12,97.771-166.21C822.341,1474.03,839.9,1489.65,858.56,1503.86z"/>
				<path fill="#FFFFFF" d="M741.83,1373.31l-0.22,0.062c-43.25,6.869-104.93,25.56-186.46,54.25
					c71.7-49.11,123.34-88.102,154.29-119.301C718.69,1330.89,729.48,1352.64,741.83,1373.31z"/>
				<path fill="#FFFFFF" d="M681.76,1204.31h-0.2c-42.66-11.329-107.4-18.85-194.85-24.93
					c86.159-18.28,149.409-34.801,190.06-52.051c-0.1,13.91,0.24,27.95,1.229,42.091C678.82,1181.19,680.08,1192.82,681.76,1204.31z
					"/>
				<path fill="#FFFFFF" d="M715.6,951.86c-9.82,22.62-18,46.12-24.25,70.36l-0.14-0.08c-34.841-26.891-92.03-58.75-171.271-98.11
					C606.93,941.56,671.74,951.551,715.6,951.86z"/>
				<path fill="#FFFFFF" d="M814.9,808.39c-17.479,17.26-33.609,35.82-48.18,55.57l-0.061-0.07
					c-22.25-37.72-63.479-88.73-122.47-155.17C718.2,757.881,774.45,791.62,814.9,808.39z"/>
				<path fill="#FFFFFF" d="M961.11,711.66c-23.12,9.55-45.22,20.931-66.17,33.931h-0.04c-6.41-43.391-25.32-106.181-54.78-189.881
					C890.12,628.7,929.631,680.9,961.11,711.66z"/>
				<path fill="#FFFFFF" d="M1140.171,676.74c-11.551-0.149-23.141,0.22-34.79,1.04c-14.221,0.99-28.24,2.62-42.03,4.851l-0.08,0.09
					c11.42-42.66,18.979-107.59,25.09-195.46C1106.551,573.01,1123.01,636.08,1140.171,676.74z"/>
				<path fill="#FFFFFF" d="M1343.711,520.49c-17.07,84.72-26.99,148.41-27.78,192.2c-22.12-9.49-45.061-17.11-68.681-22.9
					l-0.209,0.101C1273.631,654.89,1305.051,598.33,1343.711,520.49z"/>
				<path fill="#FFFFFF" d="M1559.03,644.751c-47.079,70.859-80.011,125.439-97.45,165.47c-16.55-16.67-34.41-31.851-53.33-45.61
					l-0.209,0.08C1445.33,741.93,1495.01,701.58,1559.03,644.751z"/>
				<path fill="#FFFFFF" d="M1712.041,840.671c-71.7,49.119-123.33,88.109-154.291,119.31c-9.25-22.57-20.039-44.32-32.39-64.99
					l0.22-0.06C1568.83,888.06,1630.52,869.37,1712.041,840.671z"/>
				<path fill="#FFFFFF" d="M1780.48,1088.91c-81,17.19-141.75,32.82-182.511,48.96c0.189-10.88-0.189-21.77-0.95-32.72
					c-0.939-13.31-2.42-26.45-4.439-39.399l-0.22-0.061C1634.99,1076.08,1697.51,1083.14,1780.48,1088.91z"/>
				<path fill="#FFFFFF" d="M1583.76,1251.97c35.311,25.649,89.899,55.739,163.489,92.29c-80.51-16.221-142.02-25.979-185.52-27.59
					C1570.73,1295.78,1578.06,1274.18,1583.76,1251.97z"/>
				<path fill="#FFFFFF" d="M1506.07,1413.45c23.229,36.71,62.529,84.851,116.93,146.13c-68.25-45.34-121.399-77.561-160.979-95.449
					c15.961-15.78,30.66-32.681,44.08-50.57L1506.07,1413.45z"/>
			</g>
			<g>
				<path fill="none" stroke="#2E3192" stroke-width="0.5" stroke-miterlimit="10" d="M1592.36,1065.69
					c42.63,10.39,105.149,17.45,188.12,23.22c-81,17.19-141.75,32.82-182.511,48.96c0.189-10.88-0.189-21.77-0.95-32.72
					c-0.939-13.31-2.42-26.45-4.439-39.4L1592.36,1065.69z"/>
				<path fill="none" stroke="#2E3192" stroke-width="0.5" stroke-miterlimit="10" d="M1583.76,1251.97
					c35.311,25.649,89.899,55.739,163.489,92.29c-80.51-16.221-142.02-25.979-185.52-27.59
					C1570.73,1295.78,1578.06,1274.18,1583.76,1251.97z"/>
				<path fill="none" stroke="#2E3192" stroke-width="0.5" stroke-miterlimit="10" d="M1583.621,1251.87
					c0.049,0.03,0.09,0.07,0.14,0.101v-0.011L1583.621,1251.87z"/>
				<path fill="none" stroke="#2E3192" stroke-width="0.5" stroke-miterlimit="10" d="M1462.02,1464.131
					c15.961-15.78,30.66-32.681,44.08-50.57l-0.029-0.109c23.229,36.71,62.529,84.851,116.931,146.13
					C1554.75,1514.24,1501.6,1482.02,1462.02,1464.131z"/>
				<path fill="none" stroke="#2E3192" stroke-width="0.5" stroke-miterlimit="10" d="M1312.81,1563.41
					c21.261-8.771,41.66-19.029,61.102-30.67l0.02-0.021c7.641,42.84,25.87,102.399,53.141,179.87
					C1380.57,1644.71,1343.14,1594.801,1312.81,1563.41z"/>
				<path fill="none" stroke="#2E3192" stroke-width="0.5" stroke-miterlimit="10" d="M1201.89,1593.41l0.021,0.07
					c-10.311,42.609-17.329,104.949-23.079,187.55c-17.261-81.351-32.95-142.29-49.171-183.05c13.221,0.1,26.551-0.25,39.979-1.19
					C1180.51,1596.03,1191.26,1594.9,1201.89,1593.41z"/>
				<path fill="none" stroke="#2E3192" stroke-width="0.5" stroke-miterlimit="10" d="M951.19,1558.83
					c21.31,9.261,43.41,17.12,66.16,23.271l-0.06,0.131c-25.98,35.239-56.53,90.51-93.811,165.569
					C940.131,1665.14,949.98,1602.501,951.19,1558.83z"/>
				<path fill="none" stroke="#2E3192" stroke-width="0.5" stroke-miterlimit="10" d="M805.93,1457.341
					c16.41,16.689,33.97,32.311,52.63,46.521l-0.1,0.159c-37.211,22.851-86.681,63.051-150.301,119.53
					C755.53,1552.251,788.58,1497.43,805.93,1457.341z"/>
				<path fill="none" stroke="#2E3192" stroke-width="0.5" stroke-miterlimit="10" d="M741.83,1373.31l-0.22,0.062
					c-43.25,6.869-104.93,25.56-186.46,54.25c71.7-49.11,123.34-88.102,154.29-119.301
					C718.69,1330.89,729.48,1352.64,741.83,1373.31z"/>
				<path fill="none" stroke="#2E3192" stroke-width="0.5" stroke-miterlimit="10" d="M676.77,1127.33
					c-0.1,13.91,0.24,27.95,1.229,42.091c0.82,11.771,2.08,23.399,3.761,34.89h-0.2c-42.66-11.329-107.4-18.851-194.85-24.931
					C572.87,1161.1,636.12,1144.58,676.77,1127.33z"/>
				<path fill="none" stroke="#2E3192" stroke-width="0.5" stroke-miterlimit="10" d="M715.6,951.86
					c-9.82,22.62-18,46.12-24.25,70.36l-0.14-0.08c-34.841-26.891-92.03-58.75-171.271-98.11
					C606.93,941.56,671.74,951.551,715.6,951.86z"/>
				<path fill="none" stroke="#2E3192" stroke-width="0.5" stroke-miterlimit="10" d="M814.9,808.39
					c-17.479,17.26-33.609,35.82-48.18,55.57l-0.061-0.07c-22.25-37.72-63.479-88.73-122.47-155.17
					C718.2,757.881,774.45,791.62,814.9,808.39z"/>
				<path fill="none" stroke="#2E3192" stroke-width="0.5" stroke-miterlimit="10" d="M961.11,711.66
					c-23.12,9.55-45.22,20.931-66.17,33.931h-0.04c-6.41-43.391-25.32-106.181-54.78-189.881
					C890.12,628.7,929.631,680.9,961.11,711.66z"/>
				<path fill="none" stroke="#2E3192" stroke-width="0.5" stroke-miterlimit="10" d="M1140.171,676.74
					c-11.551-0.149-23.141,0.22-34.79,1.04c-14.221,0.99-28.24,2.62-42.03,4.851l-0.08,0.09c11.42-42.66,18.979-107.59,25.09-195.46
					C1106.551,573.01,1123.01,636.08,1140.171,676.74z"/>
				<path fill="none" stroke="#2E3192" stroke-width="0.5" stroke-miterlimit="10" d="M1343.711,520.49
					c-17.07,84.72-26.99,148.41-27.78,192.2c-22.12-9.49-45.061-17.11-68.681-22.9l-0.209,0.101
					C1273.631,654.89,1305.051,598.33,1343.711,520.49z"/>
				<path fill="none" stroke="#2E3192" stroke-width="0.5" stroke-miterlimit="10" d="M1408.041,764.69
					c37.289-22.76,86.97-63.11,150.989-119.939c-47.079,70.859-80.011,125.439-97.45,165.47c-16.55-16.67-34.41-31.851-53.33-45.61
					L1408.041,764.69z"/>
				<path fill="none" stroke="#2E3192" stroke-width="0.5" stroke-miterlimit="10" d="M1525.36,894.99l0.22-0.06
					c43.25-6.87,104.939-25.561,186.461-54.26c-71.701,49.119-123.33,88.109-154.291,119.31
					C1548.5,937.41,1537.711,915.66,1525.36,894.99z"/>
			</g>
		</g>
	</g>
	<g id="XMLID_6_">
		<g>
			<path fill="#00A651" d="M1097.381,717.53l8.899,127.32c-46.54,4.36-92.689,20.04-134.25,47.86h-0.02l-0.88,0.6
				c-66.521,44.86-108.551,112.43-122.73,185.399c-14.13,72.641-0.64,150.671,43.75,217l0.7,2.03l1.01,0.5
				c28.04,40.99,64.761,72.561,106.021,93.91l-55.95,114.71c-61.32-31.13-115.8-77.841-156.98-138.88l0.011-0.011
				c-64.561-95.721-84.221-208.551-63.801-313.601s80.9-202.31,176.61-266.87l0.01,0.011
				C960.841,746.33,1028.86,723.421,1097.381,717.53z"/>
		</g>
		<g>
			<path fill="none" stroke="#2E3192" stroke-width="0.5" stroke-miterlimit="10" d="M899.77,787.501
				c-95.71,64.56-156.19,161.819-176.61,266.869c-20.42,105.051-0.76,217.881,63.801,313.601l-0.011,0.011
				c41.181,61.039,95.66,107.75,156.98,138.88l55.95-114.71c-41.261-21.351-77.98-52.92-106.021-93.91l-1.01-0.5l-0.7-2.029
				c-44.39-66.33-57.88-144.36-43.75-217c14.18-72.971,56.21-140.54,122.73-185.4l0.88-0.6h0.02
				c41.561-27.82,87.71-43.5,134.25-47.86l-8.899-127.32c-68.521,5.891-136.54,28.8-197.601,69.98L899.77,787.501z"/>
		</g>
	</g>
	<g id="XMLID_7_">
		<g>
			<path fill="#21409A" d="M1391.59,1267.87l114.721,55.95c-31.13,61.319-77.84,115.8-138.88,156.979l-0.011-0.011
				c-95.72,64.561-208.55,84.221-313.6,63.801c-33.439-6.5-66.09-17.07-97.14-31.53l55.939-114.71
				c20.99,9.591,43.011,16.62,65.54,21c72.979,14.189,151.381,0.53,217.891-44.33l1.609-1.079l0.021-0.051
				C1338.68,1345.841,1370.25,1309.131,1391.59,1267.87z"/>
		</g>
		<g>
			<path fill="none" stroke="#2E3192" stroke-width="0.5" stroke-miterlimit="10" d="M1506.31,1323.82l-114.72-55.95
				c-21.341,41.261-52.91,77.971-93.91,106.021l-0.021,0.051l-1.609,1.079c-66.51,44.86-144.91,58.521-217.891,44.33
				c-22.529-4.38-44.55-11.409-65.539-21l-55.94,114.71c31.05,14.46,63.7,25.03,97.14,31.53
				c105.051,20.42,217.881,0.76,313.6-63.801l0.011,0.011C1428.47,1439.62,1475.18,1385.14,1506.31,1323.82z"/>
		</g>
	</g>
	<g id="XMLID_5_">
		<g>
			<path fill="#00A651" d="M1484.131,906.22c61.449,94.439,79.91,204.81,59.91,307.709c-6.5,33.439-17.07,66.08-31.53,97.141
				l-114.71-55.95c9.59-20.989,16.619-43,21-65.529c13.771-70.82,1.3-146.761-40.479-212L1484.131,906.22z"/>
		</g>
		<g>
			<path fill="none" stroke="#2E3192" stroke-width="0.5" stroke-miterlimit="10" d="M1484.131,906.22l-105.811,71.37
				c41.779,65.239,54.25,141.18,40.479,212c-4.38,22.529-11.41,44.54-21,65.529l114.71,55.95
				c14.46-31.061,25.029-63.7,31.529-97.141C1564.041,1111.03,1545.58,1000.66,1484.131,906.22z"/>
		</g>
	</g>
	<g id="XMLID_4_">
		<g>
			<path fill="#ED1C24" d="M1476.26,894.51l-105.819,71.38c-27.66-38.97-63.271-69.12-103.12-89.73l55.949-114.72
				C1382.631,791.57,1435.58,836.31,1476.26,894.51z"/>
		</g>
		<g>
			<path fill="none" stroke="#2E3192" stroke-width="0.5" stroke-miterlimit="10" d="M1267.32,876.16
				c39.85,20.61,75.46,50.761,103.12,89.73l105.819-71.38c-40.681-58.2-93.631-102.94-152.99-133.07L1267.32,876.16z"/>
		</g>
	</g>
	<g id="XMLID_3_">
		<g>
			<path fill="#ED1C24" d="M1310.52,755.24l-55.949,114.71c-20.989-9.59-43-16.62-65.53-21c-22.539-4.38-45.59-6.1-68.649-5.069
				l-8.91-127.32c34.22-1.78,68.45,0.65,101.89,7.15S1279.461,740.78,1310.52,755.24z"/>
		</g>
		<g>
			<path fill="none" stroke="#2E3192" stroke-width="0.5" stroke-miterlimit="10" d="M1120.39,843.881
				c23.06-1.03,46.109,0.689,68.65,5.069c22.529,4.38,44.539,11.41,65.529,21l55.949-114.71c-31.061-14.46-63.71-25.03-97.149-31.53
				s-67.67-8.93-101.89-7.149L1120.39,843.881z"/>
		</g>
	</g>
</g>
</svg>
